# xmcd
#
# Track frame offsets: 
#        150
#        12930
#        26810
#        47167
#        56300
#        70672
#        85502
#        99042
#        116795
#        134707
#
# Disc length: 2011 seconds
#
# Revision: 3
# Processed by: cddbd v1.5.1PL2 Copyright (c) Steve Scherf et al.
# Submitted via: ExactAudioCopy v0.95a5
#
DISCID=7b07d90a
DTITLE=Various Artist - Gospel Soul
DYEAR=1900
DGENRE=Gospel
TTITLE0=Inez Andrews - Lord Don't Move the Mountain
TTITLE1=The Dixie Hummingbirds - Loves Me Like a Rock
TTITLE2=The Sensational Williams Brothers - At the Cross
TTITLE3=Victoria Hawkins - Home Going
TTITLE4=The Five Blind Boys of Mississippi - In the Hands of the Lord
TTITLE5=The Five Blind Boys of Mississippi - I Have But One Desire
TTITLE6=Mildred Clark - It's a Shame
TTITLE7=The Mighty Clouds of Joy - I've Got One Thing (You Can't Take 
TTITLE7=Away)
TTITLE8=The Sensational Nightingales - My Home
TTITLE9=Mahalia Jackson - Amazing Grace
EXTD=
EXTT0=
EXTT1=
EXTT2=
EXTT3=
EXTT4=
EXTT5=
EXTT6=
EXTT7=
EXTT8=
EXTT9=
PLAYORDER=
